<?xml version="1.0" encoding="utf-8"?>
<!-- Generator: Adobe Illustrator 21.1.0, SVG Export Plug-In . SVG Version: 6.00 Build 0)  -->
<svg version="1.1" id="圖層_1" xmlns="http://www.w3.org/2000/svg" xmlns:xlink="http://www.w3.org/1999/xlink" x="0px" y="0px"
	 viewBox="0 0 261 62.6" style="enable-background:new 0 0 261 62.6;" xml:space="preserve">
<style type="text/css">
	.st0{fill:none;}
	.st1{fill:#999999;}
</style>
<line class="st0" x1="-32.4" y1="-150.3" x2="-32.4" y2="-153.8"/>
<g>
	<g>
		<path class="st1" d="M23,15.7L23,15.7c-0.8,0.1-1.4,2-1.4,4.3s0.6,4.2,1.4,4.3c0,0,0,0,0.1,0h0c0.8,0,1.4-1.9,1.4-4.3
			C24.4,17.7,23.8,15.8,23,15.7z M34.9,15.7L34.9,15.7c-0.8,0.1-1.4,2-1.4,4.3s0.6,4.2,1.4,4.3c0,0,0,0,0.1,0h0
			c0.8,0,1.4-1.9,1.4-4.3C36.3,17.7,35.6,15.8,34.9,15.7z"/>
		<path class="st1" d="M53.3,31.8c-0.9,0-1.6,0.7-1.6,1.6c0,12.2-9.9,22.1-22.1,22.1V35.4c7.1-0.3,12.7-6.1,12.7-13.2
			c0-1.3-0.2-2.6-0.5-3.7V3.6c0-0.7-0.9-1-1.3-0.5L34.1,10c-1.6-0.7-3.3-1-5.1-1c-1.2,0-2.3,0.2-3.4,0.4c-0.5,0.1-1,0.3-1.5,0.5
			l-0.2-0.2l-6-6.7c-0.5-0.5-1.3-0.2-1.3,0.5v9.2C9.4,17.1,4.7,25,4.7,34c0,13.7,11.1,24.8,24.8,24.8c14,0,25.4-11.4,25.4-25.4
			C54.9,32.5,54.2,31.8,53.3,31.8z M34.3,15.8c0.2,0,0.3,0,0.5-0.1h0.1c0.2,0,0.3,0,0.5,0c2.2,0.2,3.8,2.1,3.8,4.3
			c0,2.2-1.7,4.1-3.8,4.3c-0.2,0-0.3,0-0.5,0h-0.1c0,0,0,0-0.1,0c-0.2,0-0.4,0-0.5-0.1c-2.1-0.3-3.6-2.1-3.6-4.3
			S32.2,16.1,34.3,15.8z M23.5,24.3c-0.2,0-0.3,0-0.5,0H23c0,0,0,0-0.1,0c-0.2,0-0.4,0-0.5-0.1c-2.1-0.3-3.6-2.1-3.6-4.3
			s1.6-3.9,3.7-4.3c0.2,0,0.3,0,0.5-0.1H23c0.2,0,0.3,0,0.5,0c2.2,0.2,3.9,2.1,3.9,4.3C27.4,22.3,25.7,24.1,23.5,24.3z"/>
		<g>
			<g>
				<path class="st1" d="M24.4,20.1c0,2.4-0.6,4.3-1.4,4.3h0c0,0,0,0-0.1,0c-0.8-0.1-1.4-2-1.4-4.3s0.6-4.2,1.4-4.3H23
					C23.8,15.8,24.4,17.7,24.4,20.1z"/>
				<path class="st1" d="M23.5,15.8c-0.2,0-0.3,0-0.5,0h-0.1c-0.2,0-0.3,0-0.5,0.1c-0.7,0.7-1,2.5-1,4.3c0,1.8,0.4,3.6,1,4.3
					c0.2,0,0.3,0,0.5,0.1c0,0,0,0,0.1,0H23c0.2,0,0.3,0,0.5,0c0.7-0.7,1.1-2.5,1.1-4.3C24.6,18.3,24.2,16.4,23.5,15.8z M23,24.2
					L23,24.2c-0.6-0.1-1.2-1.8-1.2-4.1s0.6-4,1.2-4.1l0,0c0.6,0,1.2,1.7,1.2,4.1S23.5,24.1,23,24.2z"/>
			</g>
			<g>
				<path class="st1" d="M36.3,20.1c0,2.4-0.6,4.3-1.4,4.3h0c0,0,0,0-0.1,0c-0.8-0.1-1.4-2-1.4-4.3s0.6-4.2,1.4-4.3h0.1
					C35.6,15.8,36.3,17.7,36.3,20.1z"/>
				<path class="st1" d="M35.4,15.8c-0.2,0-0.3,0-0.5,0h-0.1c-0.2,0-0.3,0-0.5,0.1c-0.7,0.7-1,2.5-1,4.3c0,1.8,0.4,3.6,1,4.3
					c0.2,0,0.3,0,0.5,0.1c0,0,0,0,0.1,0h0.1c0.2,0,0.3,0,0.5,0c0.7-0.7,1.1-2.5,1.1-4.3C36.5,18.3,36.1,16.4,35.4,15.8z M34.8,24.2
					L34.8,24.2c-0.6-0.1-1.2-1.8-1.2-4.1s0.6-4,1.2-4.1l0,0c0.6,0,1.2,1.7,1.2,4.1S35.4,24.1,34.8,24.2z"/>
			</g>
		</g>
		<g>
			<path class="st1" d="M24.4,20.1c0,2.4-0.6,4.3-1.4,4.3h0c0,0,0,0-0.1,0c-0.8-0.1-1.4-2-1.4-4.3s0.6-4.2,1.4-4.3H23
				C23.8,15.8,24.4,17.7,24.4,20.1z"/>
			<path class="st1" d="M23.5,15.8c-0.2,0-0.3,0-0.5,0h-0.1c-0.2,0-0.3,0-0.5,0.1c-0.7,0.7-1,2.5-1,4.3c0,1.8,0.4,3.6,1,4.3
				c0.2,0,0.3,0,0.5,0.1c0,0,0,0,0.1,0H23c0.2,0,0.3,0,0.5,0c0.7-0.7,1.1-2.5,1.1-4.3C24.6,18.3,24.2,16.4,23.5,15.8z M23,24.2
				L23,24.2c-0.6-0.1-1.2-1.8-1.2-4.1s0.6-4,1.2-4.1l0,0c0.6,0,1.2,1.7,1.2,4.1S23.5,24.1,23,24.2z"/>
		</g>
		<g>
			<path class="st1" d="M36.3,20.1c0,2.4-0.6,4.3-1.4,4.3h0c0,0,0,0-0.1,0c-0.8-0.1-1.4-2-1.4-4.3s0.6-4.2,1.4-4.3h0.1
				C35.6,15.8,36.3,17.7,36.3,20.1z"/>
			<path class="st1" d="M35.4,15.8c-0.2,0-0.3,0-0.5,0h-0.1c-0.2,0-0.3,0-0.5,0.1c-0.7,0.7-1,2.5-1,4.3c0,1.8,0.4,3.6,1,4.3
				c0.2,0,0.3,0,0.5,0.1c0,0,0,0,0.1,0h0.1c0.2,0,0.3,0,0.5,0c0.7-0.7,1.1-2.5,1.1-4.3C36.5,18.3,36.1,16.4,35.4,15.8z M34.8,24.2
				L34.8,24.2c-0.6-0.1-1.2-1.8-1.2-4.1s0.6-4,1.2-4.1l0,0c0.6,0,1.2,1.7,1.2,4.1S35.4,24.1,34.8,24.2z"/>
		</g>
	</g>
	<g>
		<g>
			<path class="st1" d="M71,31.9l-7.4-20.9h-0.1v20.9H60V8.2h5.9L72.6,28h0.1l6.5-19.8h6v23.8h-3.6V11.1h-0.1
				c-0.5,1.8-2.8,8.7-7.1,20.9H71z"/>
			<path class="st1" d="M109.3,31.9H91.1V8.2h17.7v3h-14v7.1H108v3H94.8V29h14.5V31.9z"/>
			<path class="st1" d="M124.4,7.8c7.2,0.5,11.1,4.6,11.6,12.4c-0.4,7.7-4.3,11.7-11.7,12.1c-7.4-0.4-11.3-4.4-11.6-12.1
				C113,12.3,116.9,8.2,124.4,7.8z M124.1,29.4c4.9-0.2,7.5-3.3,7.8-9.2c-0.2-5.8-2.8-8.9-7.7-9.3c-4.9,0.4-7.5,3.5-7.8,9.3
				C116.7,25.9,119.3,29,124.1,29.4z"/>
			<path class="st1" d="M137.7,8.2h3.8c2.2,9.5,3.5,15.4,3.9,17.7c0.1,0.2,0.2,0.9,0.5,2.1h0.1c0.2-0.9,0.4-1.7,0.6-2.2
				c0.7-2.4,2.2-8.3,4.6-17.6h3.9c2.9,11.5,4.5,17.6,4.8,18.2c0.1,0.4,0.2,1.1,0.3,2.1h0.1c0.2-0.9,0.3-1.4,0.3-1.7
				c0.1-0.5,1.4-6.6,4.1-18.6h3.8l-6.3,23.8h-3.8c-3.2-11.8-4.8-17.9-5-18.3c-0.1-0.2-0.2-0.8-0.2-1.6h-0.1
				c-0.1,0.7-0.2,1.2-0.2,1.5c-0.1,0.3-1.8,6.5-5.1,18.4h-4.1L137.7,8.2z"/>
			<path class="st1" d="M169,8.2h3.8c2.2,9.5,3.5,15.4,3.9,17.7c0.1,0.2,0.2,0.9,0.5,2.1h0.1c0.2-0.9,0.4-1.7,0.6-2.2
				c0.7-2.4,2.2-8.3,4.6-17.6h3.9c2.9,11.5,4.5,17.6,4.8,18.2c0.1,0.4,0.2,1.1,0.3,2.1h0.1c0.2-0.9,0.3-1.4,0.3-1.7
				c0.1-0.5,1.4-6.6,4.1-18.6h3.8l-6.3,23.8h-3.8c-3.2-11.8-4.8-17.9-5-18.3c-0.1-0.2-0.2-0.8-0.2-1.6h-0.1
				c-0.1,0.7-0.2,1.2-0.2,1.5c-0.1,0.3-1.8,6.5-5.1,18.4h-4.1L169,8.2z"/>
			<path class="st1" d="M200.3,8.2h3.8c2.2,9.5,3.5,15.4,3.9,17.7c0.1,0.2,0.2,0.9,0.5,2.1h0.1c0.2-0.9,0.4-1.7,0.6-2.2
				c0.7-2.4,2.2-8.3,4.6-17.6h3.9c2.9,11.5,4.5,17.6,4.8,18.2c0.1,0.4,0.2,1.1,0.3,2.1h0.1c0.2-0.9,0.3-1.4,0.3-1.7
				c0.1-0.5,1.4-6.6,4.1-18.6h3.8L225,31.9h-3.8c-3.2-11.8-4.8-17.9-5-18.3c-0.1-0.2-0.2-0.8-0.2-1.6h-0.1c-0.1,0.7-0.2,1.2-0.2,1.5
				c-0.1,0.3-1.8,6.5-5.1,18.4h-4.1L200.3,8.2z"/>
			<path class="st1" d="M244.6,7.8c7.2,0.5,11.1,4.6,11.6,12.4c-0.4,7.7-4.3,11.7-11.7,12.1c-7.4-0.4-11.3-4.4-11.6-12.1
				C233.3,12.3,237.2,8.2,244.6,7.8z M244.4,29.4c4.9-0.2,7.5-3.3,7.8-9.2c-0.2-5.8-2.8-8.9-7.7-9.3c-4.9,0.4-7.5,3.5-7.8,9.3
				C237,25.9,239.5,29,244.4,29.4z"/>
		</g>
		<g>
			<g>
				<path class="st1" d="M100.2,41.4l-0.9,0.7c-1.1-1.3-2.4-2-4.1-2c-1.4,0-2.5,0.5-3.5,1.4c-1,1-1.5,2.1-1.5,3.5s0.5,2.5,1.4,3.5
					c1,0.9,2.2,1.4,3.6,1.4c1.6,0,2.9-0.6,4-1.9l0.9,0.7c-0.6,0.7-1.3,1.3-2.1,1.7c-0.9,0.4-1.8,0.6-2.8,0.6c-1.8,0-3.3-0.6-4.4-1.7
					c-1.2-1.1-1.7-2.6-1.7-4.3c0-1.1,0.3-2.1,0.8-3c0.5-0.9,1.3-1.6,2.2-2.1c0.9-0.5,2-0.8,3-0.8c1.1,0,2.1,0.2,2.9,0.6
					C98.9,40.1,99.6,40.7,100.2,41.4z"/>
				<path class="st1" d="M112.2,42.3v8.4h-1.1v-1.4c-1,1.2-2.1,1.7-3.3,1.7c-1.2,0-2.3-0.4-3.1-1.3c-0.9-0.9-1.3-1.9-1.3-3.2
					c0-1.2,0.4-2.3,1.3-3.1c0.9-0.9,1.9-1.3,3.1-1.3c1.4,0,2.5,0.6,3.3,1.8v-1.5H112.2z M111.2,46.5c0-1-0.3-1.8-1-2.4
					c-0.6-0.7-1.4-1-2.4-1c-0.9,0-1.7,0.3-2.4,1c-0.6,0.7-1,1.5-1,2.4s0.3,1.7,1,2.4c0.7,0.7,1.4,1,2.4,1c0.9,0,1.7-0.3,2.4-1
					C110.9,48.3,111.2,47.5,111.2,46.5z"/>
				<path class="st1" d="M118.3,49.4c0,0.3,0,0.5,0.1,0.5c0.1,0.1,0.3,0.1,0.6,0.1h0.6v0.9c-0.4,0.1-0.8,0.1-1,0.1
					c-0.5,0-0.8-0.1-1-0.3c-0.2-0.2-0.3-0.6-0.3-1.1v-6.3h-1.5v-0.9h1.5V39h1.1v3.2h1.7v0.9h-1.7V49.4z"/>
				<path class="st1" d="M128.4,45.1c0-1.1,0.3-2.1,0.8-3c0.5-0.9,1.3-1.7,2.2-2.2c0.9-0.5,1.9-0.8,3-0.8s2.1,0.3,3,0.8
					c0.9,0.5,1.7,1.2,2.2,2.2c0.5,0.9,0.8,1.9,0.8,3c0,1.1-0.3,2.1-0.8,3c-0.5,0.9-1.3,1.6-2.2,2.2c-0.9,0.5-1.9,0.8-3,0.8
					s-2.1-0.3-3-0.8c-0.9-0.5-1.7-1.2-2.2-2.2C128.7,47.1,128.4,46.1,128.4,45.1z M139.2,45c0-1.4-0.5-2.5-1.4-3.5
					c-0.9-0.9-2.1-1.4-3.4-1.4c-1.4,0-2.5,0.5-3.4,1.4c-0.9,0.9-1.4,2.1-1.4,3.5c0,1.4,0.5,2.5,1.4,3.4c0.9,0.9,2.1,1.4,3.4,1.4
					s2.5-0.5,3.4-1.4C138.8,47.6,139.2,46.4,139.2,45z"/>
				<path class="st1" d="M147.6,39.3v1.1c-0.4-0.2-0.8-0.3-1.1-0.3c-0.3,0-0.5,0.1-0.6,0.3c-0.1,0.2-0.1,0.5-0.1,1v0.9h1.8v0.9h-1.8
					v7.5h-1.1v-7.5h-1.1v-0.9h1.1v-1.1c0-0.7,0.1-1.3,0.4-1.6c0.3-0.3,0.7-0.5,1.3-0.5C146.6,39,147.1,39.1,147.6,39.3z"/>
				<path class="st1" d="M155.2,40.4v-1.1h6.2v1.1h-2.5v10.3h-1.2V40.4H155.2z"/>
				<path class="st1" d="M164.5,39h1.1v4.8c0.9-1.2,1.9-1.7,3.2-1.7c0.6,0,1.2,0.2,1.7,0.5c0.5,0.3,0.9,0.8,1.1,1.3
					c0.2,0.6,0.3,1.4,0.3,2.4v4.3h-1.1v-4c0-0.9,0-1.5-0.1-1.8c-0.1-0.3-0.2-0.6-0.3-0.9c-0.2-0.3-0.4-0.5-0.7-0.7
					c-0.3-0.2-0.7-0.2-1.1-0.2c-0.4,0-0.8,0.1-1.2,0.3c-0.4,0.2-0.7,0.5-1,0.8c-0.3,0.4-0.5,0.7-0.6,1.1c-0.1,0.4-0.1,1.1-0.1,2.3
					v3.1h-1.1V39z"/>
				<path class="st1" d="M182.8,48l0.9,0.5c-0.9,1.7-2.2,2.5-4,2.5c-1.3,0-2.3-0.4-3.1-1.3c-0.8-0.9-1.2-1.9-1.2-3.1
					s0.4-2.3,1.2-3.2c0.8-0.9,1.9-1.3,3.1-1.3s2.2,0.4,3.1,1.2c0.8,0.8,1.3,1.9,1.3,3.3h-7.6c0,1,0.4,1.8,1,2.4
					c0.6,0.6,1.3,0.9,2.2,0.9C181.1,50,182.1,49.3,182.8,48z M182.8,45.7c-0.1-0.8-0.5-1.4-1.1-1.9c-0.6-0.5-1.3-0.7-2-0.7
					c-1.6,0-2.6,0.9-3.1,2.6H182.8z"/>
				<path class="st1" d="M193.4,50.7V39.3h2.4c1.6,0,2.8,0.1,3.6,0.4c0.8,0.2,1.4,0.6,2,1.1c0.5,0.5,1,1.1,1.3,1.9
					c0.3,0.7,0.4,1.6,0.4,2.6c0,1-0.2,1.9-0.7,2.8c-0.5,0.9-1.1,1.5-1.9,2c-0.8,0.4-1.9,0.7-3.4,0.7H193.4z M194.4,49.6h1.3
					c1.4,0,2.4-0.1,3-0.2c0.6-0.1,1.2-0.4,1.6-0.8c0.5-0.4,0.8-0.9,1.1-1.5c0.2-0.6,0.4-1.2,0.4-2s-0.1-1.4-0.4-2.1
					c-0.3-0.6-0.7-1.2-1.2-1.6c-0.5-0.4-1.1-0.7-1.8-0.8c-0.7-0.1-1.7-0.2-3.1-0.2h-0.8V49.6z"/>
				<path class="st1" d="M214.9,42.3v8.4h-1.1v-1.4c-1,1.2-2.1,1.7-3.3,1.7c-1.2,0-2.3-0.4-3.1-1.3c-0.9-0.9-1.3-1.9-1.3-3.2
					c0-1.2,0.4-2.3,1.3-3.1c0.9-0.9,1.9-1.3,3.1-1.3c1.4,0,2.5,0.6,3.3,1.8v-1.5H214.9z M213.9,46.5c0-1-0.3-1.8-1-2.4
					c-0.6-0.7-1.4-1-2.4-1c-0.9,0-1.7,0.3-2.4,1c-0.6,0.7-1,1.5-1,2.4s0.3,1.7,1,2.4c0.7,0.7,1.4,1,2.4,1c0.9,0,1.7-0.3,2.4-1
					C213.6,48.3,213.9,47.5,213.9,46.5z"/>
				<path class="st1" d="M218,42.3h1.1l2.9,6.5l2.8-6.5h1.2l-5,11.5h-1.1l1.6-3.7L218,42.3z"/>
			</g>
		</g>
	</g>
</g>
</svg>
