<?xml version="1.0" encoding="utf-8"?>
<!-- Generator: Adobe Illustrator 21.1.0, SVG Export Plug-In . SVG Version: 6.00 Build 0)  -->
<svg version="1.1" id="圖層_1" xmlns="http://www.w3.org/2000/svg" xmlns:xlink="http://www.w3.org/1999/xlink" x="0px" y="0px"
	 viewBox="0 0 163.5 39.5" style="enable-background:new 0 0 163.5 39.5;" xml:space="preserve">
<style type="text/css">
	.st0{fill:none;}
	.st1{fill:none;stroke:#000000;stroke-miterlimit:10;}
</style>
<line class="st0" x1="-81.1" y1="-161.8" x2="-81.1" y2="-165.4"/>
<g>
	<g>
		<path d="M14.6,10L14.6,10c-0.5,0.1-0.9,1.3-0.9,2.7s0.4,2.6,0.8,2.7c0,0,0,0,0,0h0c0.5,0,0.9-1.2,0.9-2.7C15.4,11.2,15,10,14.6,10
			z M22,10L22,10c-0.5,0.1-0.9,1.3-0.9,2.7s0.4,2.6,0.8,2.7c0,0,0,0,0,0h0c0.5,0,0.9-1.2,0.9-2.7C22.9,11.2,22.5,10,22,10z"/>
		<path d="M33.5,20.1c-0.6,0-1,0.5-1,1c0,7.6-6.2,13.8-13.8,13.8V22.3c4.4-0.2,7.9-3.8,7.9-8.3c0-0.8-0.1-1.6-0.3-2.3V2.4
			c0-0.4-0.5-0.6-0.8-0.3l-3.9,4.3c-1-0.4-2.1-0.6-3.2-0.6c-0.7,0-1.4,0.1-2.1,0.3c-0.3,0.1-0.7,0.2-1,0.3l-0.1-0.1l-3.8-4.2
			c-0.3-0.3-0.8-0.1-0.8,0.3v5.7c-4.5,2.7-7.4,7.6-7.4,13.3c0,8.6,6.9,15.5,15.5,15.5c8.8,0,15.9-7.1,15.9-15.9
			C34.5,20.5,34.1,20.1,33.5,20.1z M21.6,10.1c0.1,0,0.2,0,0.3,0H22c0.1,0,0.2,0,0.3,0c1.4,0.1,2.4,1.3,2.4,2.7c0,1.4-1,2.5-2.4,2.7
			c-0.1,0-0.2,0-0.3,0h0c0,0,0,0,0,0c-0.1,0-0.2,0-0.3,0c-1.3-0.2-2.3-1.3-2.3-2.7S20.3,10.3,21.6,10.1z M14.9,15.4
			c-0.1,0-0.2,0-0.3,0h0c0,0,0,0,0,0c-0.1,0-0.2,0-0.3,0c-1.3-0.2-2.3-1.3-2.3-2.7s1-2.5,2.3-2.7c0.1,0,0.2,0,0.3,0h0.1
			c0.1,0,0.2,0,0.3,0c1.4,0.1,2.4,1.3,2.4,2.7C17.3,14.1,16.2,15.3,14.9,15.4z"/>
		<g>
			<g>
				<path d="M15.4,12.7c0,1.5-0.4,2.7-0.9,2.7h0c0,0,0,0,0,0c-0.5-0.1-0.8-1.2-0.8-2.7s0.4-2.6,0.8-2.7h0.1
					C15,10,15.4,11.2,15.4,12.7z"/>
				<path d="M14.9,10c-0.1,0-0.2,0-0.3,0h-0.1c-0.1,0-0.2,0-0.3,0c-0.4,0.4-0.7,1.6-0.7,2.7c0,1.1,0.2,2.2,0.7,2.7
					c0.1,0,0.2,0,0.3,0c0,0,0,0,0,0h0c0.1,0,0.2,0,0.3,0c0.4-0.4,0.7-1.6,0.7-2.7C15.6,11.6,15.3,10.4,14.9,10z M14.5,15.3
					L14.5,15.3c-0.4-0.1-0.8-1.1-0.8-2.6s0.4-2.5,0.7-2.6l0,0c0.4,0,0.7,1.1,0.7,2.6S14.9,15.3,14.5,15.3z"/>
			</g>
			<g>
				<path d="M22.9,12.7c0,1.5-0.4,2.7-0.9,2.7h0c0,0,0,0,0,0c-0.5-0.1-0.8-1.2-0.8-2.7s0.4-2.6,0.8-2.7H22
					C22.5,10,22.9,11.2,22.9,12.7z"/>
				<path d="M22.3,10c-0.1,0-0.2,0-0.3,0h-0.1c-0.1,0-0.2,0-0.3,0c-0.4,0.4-0.7,1.6-0.7,2.7c0,1.1,0.2,2.2,0.7,2.7
					c0.1,0,0.2,0,0.3,0c0,0,0,0,0,0h0c0.1,0,0.2,0,0.3,0c0.4-0.4,0.7-1.6,0.7-2.7C23,11.6,22.8,10.4,22.3,10z M22,15.3L22,15.3
					c-0.4-0.1-0.8-1.1-0.8-2.6s0.4-2.5,0.7-2.6l0,0c0.4,0,0.7,1.1,0.7,2.6S22.3,15.3,22,15.3z"/>
			</g>
		</g>
		<g>
			<path d="M15.4,12.7c0,1.5-0.4,2.7-0.9,2.7h0c0,0,0,0,0,0c-0.5-0.1-0.8-1.2-0.8-2.7s0.4-2.6,0.8-2.7h0.1
				C15,10,15.4,11.2,15.4,12.7z"/>
			<path d="M14.9,10c-0.1,0-0.2,0-0.3,0h-0.1c-0.1,0-0.2,0-0.3,0c-0.4,0.4-0.7,1.6-0.7,2.7c0,1.1,0.2,2.2,0.7,2.7c0.1,0,0.2,0,0.3,0
				c0,0,0,0,0,0h0c0.1,0,0.2,0,0.3,0c0.4-0.4,0.7-1.6,0.7-2.7C15.6,11.6,15.3,10.4,14.9,10z M14.5,15.3L14.5,15.3
				c-0.4-0.1-0.8-1.1-0.8-2.6s0.4-2.5,0.7-2.6l0,0c0.4,0,0.7,1.1,0.7,2.6S14.9,15.3,14.5,15.3z"/>
		</g>
		<g>
			<path d="M22.9,12.7c0,1.5-0.4,2.7-0.9,2.7h0c0,0,0,0,0,0c-0.5-0.1-0.8-1.2-0.8-2.7s0.4-2.6,0.8-2.7H22
				C22.5,10,22.9,11.2,22.9,12.7z"/>
			<path d="M22.3,10c-0.1,0-0.2,0-0.3,0h-0.1c-0.1,0-0.2,0-0.3,0c-0.4,0.4-0.7,1.6-0.7,2.7c0,1.1,0.2,2.2,0.7,2.7c0.1,0,0.2,0,0.3,0
				c0,0,0,0,0,0h0c0.1,0,0.2,0,0.3,0c0.4-0.4,0.7-1.6,0.7-2.7C23,11.6,22.8,10.4,22.3,10z M22,15.3L22,15.3
				c-0.4-0.1-0.8-1.1-0.8-2.6s0.4-2.5,0.7-2.6l0,0c0.4,0,0.7,1.1,0.7,2.6S22.3,15.3,22,15.3z"/>
		</g>
	</g>
	<g>
		<g>
			<path d="M44.6,20.1l-4.6-13h-0.1v13h-2.2V5.3h3.7l4.2,12.4h0.1l4.1-12.4h3.8v14.9h-2.2v-13h-0.1c-0.3,1.1-1.8,5.5-4.4,13H44.6z"
				/>
			<path d="M68.5,20.1H57.1V5.3h11.1v1.9h-8.8v4.4h8.3v1.9h-8.3v4.9h9.1V20.1z"/>
			<path d="M77.9,5.1c4.5,0.3,6.9,2.9,7.2,7.8c-0.2,4.8-2.7,7.3-7.3,7.5c-4.6-0.2-7.1-2.8-7.2-7.5C70.8,7.9,73.3,5.3,77.9,5.1z
				 M77.8,18.6c3.1-0.1,4.7-2.1,4.9-5.7c-0.1-3.6-1.7-5.6-4.8-5.8c-3,0.2-4.7,2.2-4.9,5.8C73.1,16.4,74.7,18.3,77.8,18.6z"/>
			<path d="M86.3,5.3h2.4c1.4,5.9,2.2,9.6,2.5,11.1c0,0.1,0.1,0.6,0.3,1.3h0.1c0.1-0.6,0.3-1,0.4-1.4c0.4-1.5,1.4-5.2,2.9-11h2.5
				c1.8,7.2,2.8,11,3,11.4c0,0.2,0.1,0.7,0.2,1.3h0.1c0.1-0.5,0.2-0.9,0.2-1.1c0-0.3,0.9-4.2,2.5-11.6h2.4l-3.9,14.9h-2.4
				c-2-7.4-3-11.2-3.1-11.5c0-0.1-0.1-0.5-0.1-1H96c0,0.4-0.1,0.7-0.1,0.9c0,0.2-1.1,4-3.2,11.5h-2.5L86.3,5.3z"/>
			<path d="M105.8,5.3h2.4c1.4,5.9,2.2,9.6,2.5,11.1c0,0.1,0.1,0.6,0.3,1.3h0.1c0.1-0.6,0.3-1,0.4-1.4c0.4-1.5,1.4-5.2,2.9-11h2.5
				c1.8,7.2,2.8,11,3,11.4c0,0.2,0.1,0.7,0.2,1.3h0.1c0.1-0.5,0.2-0.9,0.2-1.1c0-0.3,0.9-4.2,2.5-11.6h2.4l-3.9,14.9h-2.4
				c-2-7.4-3-11.2-3.1-11.5c0-0.1-0.1-0.5-0.1-1h-0.1c0,0.4-0.1,0.7-0.1,0.9c0,0.2-1.1,4-3.2,11.5h-2.5L105.8,5.3z"/>
			<path d="M125.4,5.3h2.4c1.4,5.9,2.2,9.6,2.5,11.1c0,0.1,0.1,0.6,0.3,1.3h0.1c0.1-0.6,0.3-1,0.4-1.4c0.4-1.5,1.4-5.2,2.9-11h2.5
				c1.8,7.2,2.8,11,3,11.4c0,0.2,0.1,0.7,0.2,1.3h0.1c0.1-0.5,0.2-0.9,0.2-1.1c0-0.3,0.9-4.2,2.5-11.6h2.4l-3.9,14.9h-2.4
				c-2-7.4-3-11.2-3.1-11.5c0-0.1-0.1-0.5-0.1-1h-0.1c0,0.4-0.1,0.7-0.1,0.9c0,0.2-1.1,4-3.2,11.5h-2.5L125.4,5.3z"/>
			<path d="M153.1,5.1c4.5,0.3,6.9,2.9,7.2,7.8c-0.2,4.8-2.7,7.3-7.3,7.5c-4.6-0.2-7.1-2.8-7.2-7.5C146,7.9,148.4,5.3,153.1,5.1z
				 M152.9,18.6c3.1-0.1,4.7-2.1,4.9-5.7c-0.1-3.6-1.7-5.6-4.8-5.8c-3,0.2-4.7,2.2-4.9,5.8C148.3,16.4,149.9,18.3,152.9,18.6z"/>
		</g>
		<g>
			<g>
				<path d="M62.8,26.1l-0.6,0.4c-0.7-0.8-1.5-1.2-2.5-1.2c-0.8,0-1.6,0.3-2.2,0.9c-0.6,0.6-0.9,1.3-0.9,2.2c0,0.9,0.3,1.6,0.9,2.2
					c0.6,0.6,1.3,0.9,2.2,0.9c1,0,1.8-0.4,2.5-1.2l0.6,0.4c-0.3,0.5-0.8,0.8-1.3,1.1c-0.5,0.2-1.1,0.4-1.8,0.4
					c-1.1,0-2.1-0.4-2.8-1.1c-0.7-0.7-1.1-1.6-1.1-2.7c0-0.7,0.2-1.3,0.5-1.9c0.3-0.6,0.8-1,1.4-1.3c0.6-0.3,1.2-0.5,1.9-0.5
					c0.7,0,1.3,0.1,1.8,0.4C62,25.2,62.5,25.6,62.8,26.1z"/>
				<path d="M70.3,26.6v5.3h-0.7V31c-0.6,0.7-1.3,1.1-2.1,1.1c-0.8,0-1.4-0.3-2-0.8c-0.5-0.6-0.8-1.2-0.8-2c0-0.8,0.3-1.4,0.8-2
					c0.5-0.5,1.2-0.8,1.9-0.8c0.9,0,1.6,0.4,2.1,1.1v-1H70.3z M69.7,29.3c0-0.6-0.2-1.1-0.6-1.5c-0.4-0.4-0.9-0.6-1.5-0.6
					c-0.6,0-1.1,0.2-1.5,0.6c-0.4,0.4-0.6,0.9-0.6,1.5s0.2,1.1,0.6,1.5c0.4,0.4,0.9,0.6,1.5,0.6c0.6,0,1.1-0.2,1.5-0.6
					S69.7,29.9,69.7,29.3z"/>
				<path d="M74.1,31c0,0.2,0,0.3,0.1,0.3c0,0,0.2,0,0.4,0H75V32c-0.3,0-0.5,0.1-0.7,0.1c-0.3,0-0.5-0.1-0.7-0.2
					c-0.1-0.1-0.2-0.4-0.2-0.7v-4h-0.9v-0.6h0.9v-2h0.7v2h1.1v0.6h-1.1V31z"/>
				<path d="M80.5,28.4c0-0.7,0.2-1.3,0.5-1.9c0.3-0.6,0.8-1,1.4-1.4c0.6-0.3,1.2-0.5,1.9-0.5c0.7,0,1.3,0.2,1.9,0.5
					c0.6,0.3,1,0.8,1.4,1.4c0.3,0.6,0.5,1.2,0.5,1.9s-0.2,1.3-0.5,1.9c-0.3,0.6-0.8,1-1.4,1.4c-0.6,0.3-1.2,0.5-1.9,0.5
					c-0.7,0-1.3-0.2-1.9-0.5c-0.6-0.3-1-0.8-1.4-1.4C80.6,29.6,80.5,29,80.5,28.4z M87.2,28.3c0-0.9-0.3-1.6-0.9-2.2
					c-0.6-0.6-1.3-0.9-2.1-0.9c-0.9,0-1.6,0.3-2.1,0.9c-0.6,0.6-0.9,1.3-0.9,2.2s0.3,1.6,0.9,2.2c0.6,0.6,1.3,0.9,2.1,0.9
					s1.5-0.3,2.1-0.9C86.9,29.9,87.2,29.2,87.2,28.3z"/>
				<path d="M92.4,24.7v0.7c-0.3-0.1-0.5-0.2-0.7-0.2c-0.2,0-0.3,0.1-0.4,0.2c-0.1,0.1-0.1,0.3-0.1,0.6v0.6h1.1v0.6h-1.1v4.7h-0.7
					v-4.7h-0.7v-0.6h0.7v-0.7c0-0.5,0.1-0.8,0.3-1c0.2-0.2,0.4-0.3,0.8-0.3C91.8,24.6,92.1,24.6,92.4,24.7z"/>
				<path d="M97.2,25.5v-0.7h3.9v0.7h-1.6v6.4h-0.7v-6.4H97.2z"/>
				<path d="M103,24.6h0.7v3c0.5-0.7,1.2-1.1,2-1.1c0.4,0,0.8,0.1,1.1,0.3c0.3,0.2,0.5,0.5,0.7,0.8c0.1,0.3,0.2,0.9,0.2,1.5v2.7
					h-0.7v-2.5c0-0.5,0-0.9,0-1.1c0-0.2-0.1-0.4-0.2-0.6c-0.1-0.2-0.3-0.3-0.5-0.4c-0.2-0.1-0.4-0.1-0.7-0.1c-0.3,0-0.5,0.1-0.8,0.2
					c-0.2,0.1-0.5,0.3-0.6,0.5s-0.3,0.5-0.3,0.7c-0.1,0.2-0.1,0.7-0.1,1.4v1.9H103V24.6z"/>
				<path d="M114.5,30.2l0.6,0.3c-0.6,1.1-1.4,1.6-2.5,1.6c-0.8,0-1.4-0.3-2-0.8c-0.5-0.5-0.8-1.2-0.8-2s0.3-1.4,0.8-2
					c0.5-0.5,1.2-0.8,1.9-0.8s1.4,0.3,1.9,0.8c0.5,0.5,0.8,1.2,0.8,2.1h-4.7c0,0.6,0.2,1.1,0.6,1.5c0.4,0.4,0.8,0.6,1.4,0.6
					C113.4,31.4,114,31,114.5,30.2z M114.5,28.7c-0.1-0.5-0.3-0.9-0.7-1.2c-0.4-0.3-0.8-0.4-1.3-0.4c-1,0-1.6,0.5-1.9,1.6H114.5z"/>
				<path d="M121,31.9v-7.1h1.5c1,0,1.8,0.1,2.2,0.2c0.5,0.1,0.9,0.4,1.2,0.7c0.3,0.3,0.6,0.7,0.8,1.2c0.2,0.5,0.3,1,0.3,1.6
					c0,0.6-0.1,1.2-0.4,1.7c-0.3,0.5-0.7,1-1.2,1.2c-0.5,0.3-1.2,0.4-2.1,0.4H121z M121.7,31.2h0.8c0.9,0,1.5,0,1.9-0.1
					c0.4-0.1,0.7-0.3,1-0.5c0.3-0.3,0.5-0.6,0.7-0.9c0.2-0.4,0.2-0.8,0.2-1.2s-0.1-0.9-0.3-1.3c-0.2-0.4-0.4-0.7-0.7-1
					c-0.3-0.3-0.7-0.4-1.1-0.5c-0.4-0.1-1.1-0.1-1.9-0.1h-0.5V31.2z"/>
				<path d="M134.5,26.6v5.3h-0.7V31c-0.6,0.7-1.3,1.1-2.1,1.1c-0.8,0-1.4-0.3-2-0.8c-0.5-0.6-0.8-1.2-0.8-2c0-0.8,0.3-1.4,0.8-2
					c0.5-0.5,1.2-0.8,1.9-0.8c0.9,0,1.6,0.4,2.1,1.1v-1H134.5z M133.9,29.3c0-0.6-0.2-1.1-0.6-1.5c-0.4-0.4-0.9-0.6-1.5-0.6
					c-0.6,0-1.1,0.2-1.5,0.6c-0.4,0.4-0.6,0.9-0.6,1.5s0.2,1.1,0.6,1.5c0.4,0.4,0.9,0.6,1.5,0.6c0.6,0,1.1-0.2,1.5-0.6
					S133.9,29.9,133.9,29.3z"/>
				<path d="M136.5,26.6h0.7l1.8,4l1.8-4h0.7l-3.1,7.2h-0.7l1-2.3L136.5,26.6z"/>
			</g>
		</g>
	</g>
</g>
<g>
	<g>
		<path d="M-25.8,131.2L-25.8,131.2c-0.8,0.1-1.4,2-1.4,4.3s0.6,4.2,1.4,4.3c0,0,0,0,0.1,0h0c0.8,0,1.4-1.9,1.4-4.3
			C-24.4,133.1-25,131.2-25.8,131.2z M-13.9,131.2L-13.9,131.2c-0.8,0.1-1.4,2-1.4,4.3s0.6,4.2,1.4,4.3c0,0,0,0,0.1,0h0
			c0.8,0,1.4-1.9,1.4-4.3C-12.5,133.1-13.1,131.2-13.9,131.2z"/>
		<path d="M4.5,147.2c-0.9,0-1.6,0.7-1.6,1.6C2.9,161.1-7,171-19.2,171v-20.1c7.1-0.3,12.7-6.1,12.7-13.2c0-1.3-0.2-2.6-0.5-3.7V119
			c0-0.7-0.9-1-1.3-0.5l-6.3,6.9c-1.6-0.7-3.3-1-5.1-1c-1.2,0-2.3,0.2-3.4,0.4c-0.5,0.1-1,0.3-1.5,0.5l-0.2-0.2l-6-6.7
			c-0.5-0.5-1.3-0.2-1.3,0.5v9.2c-7.1,4.4-11.9,12.2-11.9,21.2c0,13.7,11.1,24.8,24.8,24.8c14,0,25.4-11.4,25.4-25.4
			C6.2,148,5.4,147.2,4.5,147.2z M-14.5,131.2c0.2,0,0.3,0,0.5-0.1h0.1c0.2,0,0.3,0,0.5,0c2.2,0.2,3.8,2.1,3.8,4.3
			c0,2.2-1.7,4.1-3.8,4.3c-0.2,0-0.3,0-0.5,0h-0.1c0,0,0,0-0.1,0c-0.2,0-0.4,0-0.5-0.1c-2.1-0.3-3.6-2.1-3.6-4.3
			C-18.1,133.3-16.6,131.6-14.5,131.2z M-25.2,139.8c-0.2,0-0.3,0-0.5,0h-0.1c0,0,0,0-0.1,0c-0.2,0-0.4,0-0.5-0.1
			c-2.1-0.3-3.6-2.1-3.6-4.3c0-2.2,1.6-3.9,3.7-4.3c0.2,0,0.3,0,0.5-0.1h0.1c0.2,0,0.3,0,0.5,0c2.2,0.2,3.9,2.1,3.9,4.3
			C-21.4,137.7-23.1,139.6-25.2,139.8z"/>
		<g>
			<g>
				<path d="M-24.4,135.5c0,2.4-0.6,4.3-1.4,4.3h0c0,0,0,0-0.1,0c-0.8-0.1-1.4-2-1.4-4.3s0.6-4.2,1.4-4.3h0.1
					C-25,131.2-24.4,133.1-24.4,135.5z"/>
				<path d="M-25.2,131.2c-0.2,0-0.3,0-0.5,0h-0.1c-0.2,0-0.3,0-0.5,0.1c-0.7,0.7-1,2.5-1,4.3c0,1.8,0.4,3.6,1,4.3
					c0.2,0,0.3,0,0.5,0.1c0,0,0,0,0.1,0h0.1c0.2,0,0.3,0,0.5,0c0.7-0.7,1.1-2.5,1.1-4.3C-24.1,133.7-24.5,131.9-25.2,131.2z
					 M-25.8,139.6L-25.8,139.6c-0.6-0.1-1.2-1.8-1.2-4.1s0.6-4,1.2-4.1l0,0c0.6,0,1.2,1.7,1.2,4.1
					C-24.6,137.9-25.2,139.6-25.8,139.6z"/>
			</g>
			<g>
				<path d="M-12.5,135.5c0,2.4-0.6,4.3-1.4,4.3h0c0,0,0,0-0.1,0c-0.8-0.1-1.4-2-1.4-4.3s0.6-4.2,1.4-4.3h0.1
					C-13.1,131.2-12.5,133.1-12.5,135.5z"/>
				<path d="M-13.4,131.2c-0.2,0-0.3,0-0.5,0H-14c-0.2,0-0.3,0-0.5,0.1c-0.7,0.7-1,2.5-1,4.3c0,1.8,0.4,3.6,1,4.3
					c0.2,0,0.3,0,0.5,0.1c0,0,0,0,0.1,0h0.1c0.2,0,0.3,0,0.5,0c0.7-0.7,1.1-2.5,1.1-4.3C-12.3,133.7-12.6,131.9-13.4,131.2z
					 M-13.9,139.6L-13.9,139.6c-0.6-0.1-1.2-1.8-1.2-4.1s0.6-4,1.2-4.1l0,0c0.6,0,1.2,1.7,1.2,4.1
					C-12.7,137.9-13.3,139.6-13.9,139.6z"/>
			</g>
		</g>
		<g>
			<path d="M-24.4,135.5c0,2.4-0.6,4.3-1.4,4.3h0c0,0,0,0-0.1,0c-0.8-0.1-1.4-2-1.4-4.3s0.6-4.2,1.4-4.3h0.1
				C-25,131.2-24.4,133.1-24.4,135.5z"/>
			<path d="M-25.2,131.2c-0.2,0-0.3,0-0.5,0h-0.1c-0.2,0-0.3,0-0.5,0.1c-0.7,0.7-1,2.5-1,4.3c0,1.8,0.4,3.6,1,4.3
				c0.2,0,0.3,0,0.5,0.1c0,0,0,0,0.1,0h0.1c0.2,0,0.3,0,0.5,0c0.7-0.7,1.1-2.5,1.1-4.3C-24.1,133.7-24.5,131.9-25.2,131.2z
				 M-25.8,139.6L-25.8,139.6c-0.6-0.1-1.2-1.8-1.2-4.1s0.6-4,1.2-4.1l0,0c0.6,0,1.2,1.7,1.2,4.1C-24.6,137.9-25.2,139.6-25.8,139.6
				z"/>
		</g>
		<g>
			<path d="M-12.5,135.5c0,2.4-0.6,4.3-1.4,4.3h0c0,0,0,0-0.1,0c-0.8-0.1-1.4-2-1.4-4.3s0.6-4.2,1.4-4.3h0.1
				C-13.1,131.2-12.5,133.1-12.5,135.5z"/>
			<path d="M-13.4,131.2c-0.2,0-0.3,0-0.5,0H-14c-0.2,0-0.3,0-0.5,0.1c-0.7,0.7-1,2.5-1,4.3c0,1.8,0.4,3.6,1,4.3
				c0.2,0,0.3,0,0.5,0.1c0,0,0,0,0.1,0h0.1c0.2,0,0.3,0,0.5,0c0.7-0.7,1.1-2.5,1.1-4.3C-12.3,133.7-12.6,131.9-13.4,131.2z
				 M-13.9,139.6L-13.9,139.6c-0.6-0.1-1.2-1.8-1.2-4.1s0.6-4,1.2-4.1l0,0c0.6,0,1.2,1.7,1.2,4.1C-12.7,137.9-13.3,139.6-13.9,139.6
				z"/>
		</g>
	</g>
	<g>
		<g>
			<path d="M22.3,147.4l-7.4-20.9h-0.1v20.9h-3.5v-23.8h5.9l6.7,19.8H24l6.5-19.8h6v23.8h-3.6v-20.9h-0.1c-0.5,1.8-2.8,8.7-7.1,20.9
				H22.3z"/>
			<path d="M60.5,147.4H42.3v-23.8h17.7v3H46v7.1h13.2v3H46v7.8h14.5V147.4z"/>
			<path d="M75.6,123.3c7.2,0.5,11.1,4.6,11.6,12.4c-0.4,7.7-4.3,11.7-11.7,12.1c-7.4-0.4-11.3-4.4-11.6-12.1
				C64.3,127.8,68.2,123.7,75.6,123.3z M75.4,144.8c4.9-0.2,7.5-3.3,7.8-9.2c-0.2-5.8-2.8-8.9-7.7-9.3c-4.9,0.4-7.5,3.5-7.8,9.3
				C68,141.4,70.5,144.4,75.4,144.8z"/>
			<path d="M89,123.6h3.8c2.2,9.5,3.5,15.4,3.9,17.7c0.1,0.2,0.2,0.9,0.5,2.1h0.1c0.2-0.9,0.4-1.7,0.6-2.2c0.7-2.4,2.2-8.3,4.6-17.6
				h3.9c2.9,11.5,4.5,17.6,4.8,18.2c0.1,0.4,0.2,1.1,0.3,2.1h0.1c0.2-0.9,0.3-1.4,0.3-1.7c0.1-0.5,1.4-6.6,4.1-18.6h3.8l-6.3,23.8
				h-3.8c-3.2-11.8-4.8-17.9-5-18.3c-0.1-0.2-0.2-0.8-0.2-1.6h-0.1c-0.1,0.7-0.2,1.2-0.2,1.5c-0.1,0.3-1.8,6.5-5.1,18.4h-4.1
				L89,123.6z"/>
			<path d="M120.3,123.6h3.8c2.2,9.5,3.5,15.4,3.9,17.7c0.1,0.2,0.2,0.9,0.5,2.1h0.1c0.2-0.9,0.4-1.7,0.6-2.2
				c0.7-2.4,2.2-8.3,4.6-17.6h3.9c2.9,11.5,4.5,17.6,4.8,18.2c0.1,0.4,0.2,1.1,0.3,2.1h0.1c0.2-0.9,0.3-1.4,0.3-1.7
				c0.1-0.5,1.4-6.6,4.1-18.6h3.8l-6.3,23.8h-3.8c-3.2-11.8-4.8-17.9-5-18.3c-0.1-0.2-0.2-0.8-0.2-1.6h-0.1
				c-0.1,0.7-0.2,1.2-0.2,1.5c-0.1,0.3-1.8,6.5-5.1,18.4h-4.1L120.3,123.6z"/>
			<path d="M151.6,123.6h3.8c2.2,9.5,3.5,15.4,3.9,17.7c0.1,0.2,0.2,0.9,0.5,2.1h0.1c0.2-0.9,0.4-1.7,0.6-2.2
				c0.7-2.4,2.2-8.3,4.6-17.6h3.9c2.9,11.5,4.5,17.6,4.8,18.2c0.1,0.4,0.2,1.1,0.3,2.1h0.1c0.2-0.9,0.3-1.4,0.3-1.7
				c0.1-0.5,1.4-6.6,4.1-18.6h3.8l-6.3,23.8h-3.8c-3.2-11.8-4.8-17.9-5-18.3c-0.1-0.2-0.2-0.8-0.2-1.6h-0.1
				c-0.1,0.7-0.2,1.2-0.2,1.5c-0.1,0.3-1.8,6.5-5.1,18.4h-4.1L151.6,123.6z"/>
			<path d="M195.9,123.3c7.2,0.5,11.1,4.6,11.6,12.4c-0.4,7.7-4.3,11.7-11.7,12.1c-7.4-0.4-11.3-4.4-11.6-12.1
				C184.6,127.8,188.5,123.7,195.9,123.3z M195.6,144.8c4.9-0.2,7.5-3.3,7.8-9.2c-0.2-5.8-2.8-8.9-7.7-9.3c-4.9,0.4-7.5,3.5-7.8,9.3
				C188.2,141.4,190.8,144.4,195.6,144.8z"/>
		</g>
		<g>
			<g>
				<path d="M51.4,156.9l-0.9,0.7c-1.1-1.3-2.4-2-4.1-2c-1.4,0-2.5,0.5-3.5,1.4c-1,1-1.5,2.1-1.5,3.5s0.5,2.5,1.4,3.5
					c1,0.9,2.2,1.4,3.6,1.4c1.6,0,2.9-0.6,4-1.9l0.9,0.7c-0.6,0.7-1.3,1.3-2.1,1.7c-0.9,0.4-1.8,0.6-2.8,0.6c-1.8,0-3.3-0.6-4.4-1.7
					c-1.2-1.1-1.7-2.6-1.7-4.3c0-1.1,0.3-2.1,0.8-3c0.5-0.9,1.3-1.6,2.2-2.1c0.9-0.5,2-0.8,3-0.8s2.1,0.2,2.9,0.6
					C50.2,155.5,50.9,156.1,51.4,156.9z"/>
				<path d="M63.5,157.7v8.4h-1.1v-1.4c-1,1.2-2.1,1.7-3.3,1.7c-1.2,0-2.3-0.4-3.1-1.3c-0.9-0.9-1.3-1.9-1.3-3.2
					c0-1.2,0.4-2.3,1.3-3.1c0.9-0.9,1.9-1.3,3.1-1.3c1.4,0,2.5,0.6,3.3,1.8v-1.5H63.5z M62.5,162c0-1-0.3-1.8-1-2.4
					c-0.6-0.7-1.4-1-2.4-1c-0.9,0-1.7,0.3-2.4,1c-0.6,0.7-1,1.5-1,2.4s0.3,1.7,1,2.4c0.7,0.7,1.4,1,2.4,1c0.9,0,1.7-0.3,2.4-1
					C62.2,163.8,62.5,163,62.5,162z"/>
				<path d="M69.5,164.8c0,0.3,0,0.5,0.1,0.5c0.1,0.1,0.3,0.1,0.6,0.1h0.6v0.9c-0.4,0.1-0.8,0.1-1,0.1c-0.5,0-0.8-0.1-1-0.3
					c-0.2-0.2-0.3-0.6-0.3-1.1v-6.3H67v-0.9h1.5v-3.2h1.1v3.2h1.7v0.9h-1.7V164.8z"/>
				<path d="M79.7,160.5c0-1.1,0.3-2.1,0.8-3c0.5-0.9,1.3-1.7,2.2-2.2c0.9-0.5,1.9-0.8,3-0.8s2.1,0.3,3,0.8c0.9,0.5,1.7,1.2,2.2,2.2
					c0.5,0.9,0.8,1.9,0.8,3s-0.3,2.1-0.8,3c-0.5,0.9-1.3,1.6-2.2,2.2c-0.9,0.5-1.9,0.8-3,0.8c-1.1,0-2.1-0.3-3-0.8
					c-0.9-0.5-1.7-1.2-2.2-2.2C79.9,162.6,79.7,161.6,79.7,160.5z M90.5,160.5c0-1.4-0.5-2.5-1.4-3.5c-0.9-0.9-2.1-1.4-3.4-1.4
					c-1.4,0-2.5,0.5-3.4,1.4c-0.9,0.9-1.4,2.1-1.4,3.5s0.5,2.5,1.4,3.4c0.9,0.9,2.1,1.4,3.4,1.4s2.5-0.5,3.4-1.4
					C90,163,90.5,161.9,90.5,160.5z"/>
				<path d="M98.8,154.7v1.1c-0.4-0.2-0.8-0.3-1.1-0.3c-0.3,0-0.5,0.1-0.6,0.3c-0.1,0.2-0.1,0.5-0.1,1v0.9h1.8v0.9h-1.8v7.5h-1.1
					v-7.5h-1.1v-0.9h1.1v-1.1c0-0.7,0.1-1.3,0.4-1.6c0.3-0.3,0.7-0.5,1.3-0.5C97.9,154.5,98.3,154.6,98.8,154.7z"/>
				<path d="M106.5,155.9v-1.1h6.2v1.1h-2.5v10.3H109v-10.3H106.5z"/>
				<path d="M115.8,154.5h1.1v4.8c0.9-1.2,1.9-1.7,3.2-1.7c0.6,0,1.2,0.2,1.7,0.5s0.9,0.8,1.1,1.3c0.2,0.6,0.3,1.4,0.3,2.4v4.3H122
					v-4c0-0.9,0-1.5-0.1-1.8c-0.1-0.3-0.2-0.6-0.3-0.9c-0.2-0.3-0.4-0.5-0.7-0.7c-0.3-0.2-0.7-0.2-1.1-0.2s-0.8,0.1-1.2,0.3
					c-0.4,0.2-0.7,0.5-1,0.8c-0.3,0.4-0.5,0.7-0.6,1.1c-0.1,0.4-0.1,1.1-0.1,2.3v3.1h-1.1V154.5z"/>
				<path d="M134.1,163.4l0.9,0.5c-0.9,1.7-2.2,2.5-4,2.5c-1.3,0-2.3-0.4-3.1-1.3c-0.8-0.9-1.2-1.9-1.2-3.1s0.4-2.3,1.2-3.2
					c0.8-0.9,1.9-1.3,3.1-1.3s2.2,0.4,3.1,1.2c0.8,0.8,1.3,1.9,1.3,3.3h-7.6c0,1,0.4,1.8,1,2.4c0.6,0.6,1.3,0.9,2.2,0.9
					C132.3,165.4,133.4,164.8,134.1,163.4z M134.1,161.1c-0.1-0.8-0.5-1.4-1.1-1.9c-0.6-0.5-1.3-0.7-2-0.7c-1.6,0-2.6,0.9-3.1,2.6
					H134.1z"/>
				<path d="M144.6,166.1v-11.4h2.4c1.6,0,2.8,0.1,3.6,0.4c0.8,0.2,1.4,0.6,2,1.1c0.5,0.5,1,1.1,1.3,1.9c0.3,0.7,0.4,1.6,0.4,2.6
					c0,1-0.2,1.9-0.7,2.8c-0.5,0.9-1.1,1.5-1.9,2c-0.8,0.4-1.9,0.7-3.4,0.7H144.6z M145.7,165.1h1.3c1.4,0,2.4-0.1,3-0.2
					c0.6-0.1,1.2-0.4,1.6-0.8c0.5-0.4,0.8-0.9,1.1-1.5c0.2-0.6,0.4-1.2,0.4-2c0-0.7-0.1-1.4-0.4-2.1c-0.3-0.6-0.7-1.2-1.2-1.6
					c-0.5-0.4-1.1-0.7-1.8-0.8c-0.7-0.1-1.7-0.2-3.1-0.2h-0.8V165.1z"/>
				<path d="M166.2,157.7v8.4h-1.1v-1.4c-1,1.2-2.1,1.7-3.3,1.7c-1.2,0-2.3-0.4-3.1-1.3c-0.9-0.9-1.3-1.9-1.3-3.2
					c0-1.2,0.4-2.3,1.3-3.1c0.9-0.9,1.9-1.3,3.1-1.3c1.4,0,2.5,0.6,3.3,1.8v-1.5H166.2z M165.2,162c0-1-0.3-1.8-1-2.4
					c-0.6-0.7-1.4-1-2.4-1c-0.9,0-1.7,0.3-2.4,1c-0.6,0.7-1,1.5-1,2.4s0.3,1.7,1,2.4c0.7,0.7,1.4,1,2.4,1c0.9,0,1.7-0.3,2.4-1
					C164.8,163.8,165.2,163,165.2,162z"/>
				<path d="M169.3,157.7h1.1l2.9,6.5l2.8-6.5h1.2l-5,11.5h-1.1l1.6-3.7L169.3,157.7z"/>
			</g>
		</g>
	</g>
</g>
<rect x="-48.2" y="115.9" class="st1" width="260" height="61.6"/>
</svg>
